<svg viewBox="0 0 24 24" xmlns="http://www.w3.org/2000/svg">
  <title>GitHub</title>
  <path
    fill="#4dd6b9"
    d="M12 .5C5.7.5.7 5.4.7 11.6c0 4.9 3.2 9 7.6 10.5.6.1.8-.3.8-.6v-2c-3.1.7-3.8-1.3-3.8-1.3-.5-1.2-1.2-1.5-1.2-1.5-.9-.6.1-.6.1-.6 1 .1 1.6 1 1.6 1 .9 1.5 2.3 1.1 2.9.8.1-.7.4-1.1.7-1.4-2.5-.3-5.2-1.2-5.2-5.6 0-1.2.4-2.1 1-2.9-.1-.3-.4-1.4.1-2.8 0 0 .8-.3 2.8 1 .8-.2 1.7-.4 2.6-.4s1.8.1 2.6.4c2-1.3 2.8-1 2.8-1 .6 1.4.2 2.5.1 2.8.6.8 1 1.8 1 2.9 0 4.4-2.7 5.3-5.2 5.6.5.4.8 1.1.8 2.2v3.2c0 .3.2.7.8.6 4.4-1.5 7.6-5.6 7.6-10.5C23.3 5.4 18.3.5 12 .5z"
  />
</svg>
